#format: frame checksums
#version: 2
#hash: MD5
#extradata 0,                              16, e46c7123194c0ebf19a23e5cefebaa63
#tb 0: 1/25
#media_type 0: video
#codec_id 0: utvideo
#dimensions 0: 352x288
#sar 0: 0/1
#stream#, dts,        pts, duration,     size, hash
0,          0,          0,        1,   136492, 5e3cc78fe9e404b0eca7c2df98841eab
0,          1,          1,        1,   136336, cec7bad80feac6e16a3d84734ae473d8
0,          2,          2,        1,   137296, cb43d766c513da815c5964f1f48c2e49
0,          3,          3,        1,   136088, 4c8900602c580526057b52bb14161274
0,          4,          4,        1,   135276, a9b134a0e49812ff929cdd57d8a00907
0,          5,          5,        1,   136668, 0b9dc3cd51ce5c674315c06bd677fcea
0,          6,          6,        1,   136480, 16020ff181e477f1b01b86aa5070bf7c
0,          7,          7,        1,   135876, 557f1f43cdfc06603f3bd97bb9d44394
0,          8,          8,        1,   136204, c03b7cd310961ef9fe8734f45a9276e2
0,          9,          9,        1,   136796, b668c63bed0b2de4d182cf0281e71ecf
0,         10,         10,        1,   136252, 7758777682f6e3ea84010cbaf2645a6e
0,         11,         11,        1,   136284, 699e6ab66911cdd0fa357c069537e3ec
0,         12,         12,        1,   135096, 65d4d3b6e1bbf6d67baca1f346d06735
0,         13,         13,        1,   136088, 7d69fb86f67b3fd3df4008cb03d9f1ef
0,         14,         14,        1,   136876, abca4a026bf93da58283d5ddd51cead4
0,         15,         15,        1,   137096, f5bb254ede8a9ed4c07fb80fb1a301d7
0,         16,         16,        1,   136232, cdbe70b4b7051b9c1092ea626e825658
0,         17,         17,        1,   136308, acb31052249c48b729842938977172e8
0,         18,         18,        1,   135444, bf38e56e2a152154b0401507550b5605
0,         19,         19,        1,   135300, 1737341c361f656feffc86903da34647
0,         20,         20,        1,   134548, c28e9c441544b7c51cf76afd4b5a2799
0,         21,         21,        1,   134816, 5b8ba0d205863105d723afcc28274fb2
0,         22,         22,        1,   134776, 90c5ac5ed83ed6a43b4fe14c0ee07dc5
0,         23,         23,        1,   136332, 3ca065b60b4fbc5b04f68e6bb900d862
0,         24,         24,        1,   136724, 283b23278ca40dc93a326e96e5c22629
0,         25,         25,        1,   135948, 6568fb8593edce20f294a936ab11153b
0,         26,         26,        1,   135400, 22abaf0c3184a79cb90b4d7fe6cee897
0,         27,         27,        1,   135056, abd6117e31af2d136c0df8ab1db64599
0,         28,         28,        1,   133676, 67a65017fb2a232a726717628fbe1d95
0,         29,         29,        1,   133700, 7dff3d958ecbedc691d3b188084d26d9
0,         30,         30,        1,   134444, 192c98c1a7c2f4a15c7aa59607b7d1ff
0,         31,         31,        1,   135388, 32d1aba6d499162345fcb0ca858558d5
0,         32,         32,        1,   135680, 77cd1f8ddf7ce977ba9ff074d595e033
0,         33,         33,        1,   136404, 9eb0213f0d66d957f668f88d426f014f
0,         34,         34,        1,   135816, 337b4082181e8627f2fe9c852681688f
0,         35,         35,        1,   135616, c73c95e75669ce9dafd0ac253239430a
0,         36,         36,        1,   135136, e4e5515dbb05b855b4ce42fe1638d119
0,         37,         37,        1,   135572, 987ffdc8d0c142e92dc02190f73afd70
0,         38,         38,        1,   134748, 8a01538b863e51066f896f18ad8cc68b
0,         39,         39,        1,   134428, 3096e9435e5813d54013bf5c86e15c4f
0,         40,         40,        1,   133796, 78d3952c814172173b24881e110c861f
0,         41,         41,        1,   135052, b0c2bf0b1047dd71268d3c3114b655d8
0,         42,         42,        1,   134768, 653862b7e519c299278186920217a303
0,         43,         43,        1,   134692, 26fb91814efadd0120f247d6b5f22d81
0,         44,         44,        1,   134164, e85390622cb7eb6618512ead58d578c6
0,         45,         45,        1,   133380, 7c04e5015f89c24713227329aa1820fb
0,         46,         46,        1,   132872, 877db229c19c9719bd9b19d0dab1c169
0,         47,         47,        1,   132864, c4a86326303f96d53cb267111ed199e5
0,         48,         48,        1,   132644, 7dd3fe41c535d168eb0450d96171ec0f
0,         49,         49,        1,   131772, c430f15c1683207fbec250dc9d7a2b13
